
    <svg id="diagramSvg" xmlns="http://www.w3.org/2000/svg" style="width: 900px; height: 700px;">
      <style id="stylesheet">text {
  text-anchor: middle;
  font-size: small;
  font-weight: bold;
}

rect {
  fill: lightblue;
  stroke: black;
  opacity: 0.5;
  stroke-width: 1.5;
}

line {
  stroke: black;
  opacity: 0.5;
  stroke-width: 1.5;
}
  </style>
      <defs>
        <marker id="arrowHead" viewBox="-10 -5 10 10" markerUnits="strokeWidth" markerWidth="6" markerHeight="5" orient="auto">
          <path d="M -10 -5 L 0 0 L -10 5 z"></path>
        </marker>
      </defs>
      <g id="diagramGroup"><rect x="529px" y="0px" width="68px" height="58px"></rect><text x="563px" y="0px"><tspan x="563" dy="34.66666666666667">Parent (0)</tspan></text><rect x="340px" y="128px" width="68px" height="58px"></rect><text x="375px" y="128px"><tspan x="375" dy="34.66666666666667">Child (1)</tspan></text><line x1="546px" y1="58px" x2="375px" y2="128px" marker-end="url(#arrowHead)"></line><rect x="528px" y="128px" width="68px" height="58px"></rect><text x="562px" y="128px"><tspan x="562" dy="34.66666666666667">Child (2)</tspan></text><line x1="563px" y1="58px" x2="562px" y2="128px" marker-end="url(#arrowHead)"></line><rect x="718px" y="128px" width="68px" height="58px"></rect><text x="752px" y="128px"><tspan x="752" dy="34.66666666666667">Child (3)</tspan></text><line x1="580px" y1="58px" x2="752px" y2="128px" marker-end="url(#arrowHead)"></line><rect x="303px" y="256px" width="68px" height="58px"></rect><text x="337px" y="256px"><tspan x="337" dy="34.66666666666667">Child (2)</tspan></text><line x1="363px" y1="186px" x2="337px" y2="256px" marker-end="url(#arrowHead)"></line><rect x="378px" y="256px" width="68px" height="58px"></rect><text x="412px" y="256px"><tspan x="412" dy="34.66666666666667">Child (3)</tspan></text><line x1="386px" y1="186px" x2="412px" y2="256px" marker-end="url(#arrowHead)"></line><rect x="528px" y="256px" width="68px" height="58px"></rect><text x="562px" y="256px"><tspan x="562" dy="34.66666666666667">Child (3)</tspan></text><line x1="562px" y1="186px" x2="562px" y2="256px" marker-end="url(#arrowHead)"></line><rect x="303px" y="385px" width="68px" height="58px"></rect><text x="337px" y="385px"><tspan x="337" dy="34.66666666666667">Child (3)</tspan></text><line x1="337px" y1="315px" x2="337px" y2="385px" marker-end="url(#arrowHead)"></line></g>
    </svg>
  