
    <svg id="diagramSvg" xmlns="http://www.w3.org/2000/svg" style="width: 900px; height: 700px;">
      <style id="stylesheet">text {
  text-anchor: middle;
  font-size: small;
  font-weight: bold;
}

rect {
  fill: lightblue;
  stroke: black;
  opacity: 0.5;
  stroke-width: 1.5;
}

line {
  stroke: black;
  opacity: 0.5;
  stroke-width: 1.5;
}
  </style>
      <defs>
        <marker id="arrowHead" viewBox="-10 -5 10 10" markerUnits="strokeWidth" markerWidth="6" markerHeight="5" orient="auto">
          <path d="M -10 -5 L 0 0 L -10 5 z"></path>
        </marker>
      </defs>
      <g id="diagramGroup"><rect x="415px" y="0px" width="68px" height="58px"></rect><text x="450px" y="0px"><tspan x="450" dy="34.66666666666667">Parent</tspan></text><rect x="115px" y="128px" width="68px" height="58px"></rect><text x="150px" y="128px"><tspan x="150" dy="34.66666666666667">Child</tspan></text><line x1="432px" y1="58px" x2="150px" y2="128px" marker-end="url(#arrowHead)"></line><rect x="415px" y="128px" width="68px" height="58px"></rect><text x="450px" y="128px"><tspan x="450" dy="34.66666666666667">Child</tspan></text><line x1="450px" y1="58px" x2="450px" y2="128px" marker-end="url(#arrowHead)"></line><rect x="715px" y="128px" width="68px" height="58px"></rect><text x="749px" y="128px"><tspan x="749" dy="34.66666666666667">Child</tspan></text><line x1="467px" y1="58px" x2="749px" y2="128px" marker-end="url(#arrowHead)"></line><rect x="40px" y="256px" width="68px" height="58px"></rect><text x="75px" y="256px"><tspan x="75" dy="34.66666666666667">Child</tspan></text><line x1="138px" y1="186px" x2="75px" y2="256px" marker-end="url(#arrowHead)"></line><rect x="190px" y="256px" width="68px" height="58px"></rect><text x="225px" y="256px"><tspan x="225" dy="34.66666666666667">Child</tspan></text><line x1="161px" y1="186px" x2="225px" y2="256px" marker-end="url(#arrowHead)"></line><rect x="340px" y="256px" width="68px" height="58px"></rect><text x="375px" y="256px"><tspan x="375" dy="34.66666666666667">Child</tspan></text><line x1="438px" y1="186px" x2="375px" y2="256px" marker-end="url(#arrowHead)"></line><rect x="490px" y="256px" width="68px" height="58px"></rect><text x="525px" y="256px"><tspan x="525" dy="34.66666666666667">Child</tspan></text><line x1="461px" y1="186px" x2="525px" y2="256px" marker-end="url(#arrowHead)"></line><rect x="640px" y="256px" width="68px" height="58px"></rect><text x="674px" y="256px"><tspan x="674" dy="34.66666666666667">Child</tspan></text><line x1="738px" y1="186px" x2="674px" y2="256px" marker-end="url(#arrowHead)"></line><rect x="790px" y="256px" width="68px" height="58px"></rect><text x="824px" y="256px"><tspan x="824" dy="34.66666666666667">Child</tspan></text><line x1="761px" y1="186px" x2="824px" y2="256px" marker-end="url(#arrowHead)"></line><rect x="40px" y="385px" width="68px" height="58px"></rect><text x="75px" y="385px"><tspan x="75" dy="34.66666666666667">Child</tspan></text><line x1="75px" y1="315px" x2="75px" y2="385px" marker-end="url(#arrowHead)"></line><rect x="190px" y="385px" width="68px" height="58px"></rect><text x="225px" y="385px"><tspan x="225" dy="34.66666666666667">Child</tspan></text><line x1="225px" y1="315px" x2="225px" y2="385px" marker-end="url(#arrowHead)"></line><rect x="340px" y="385px" width="68px" height="58px"></rect><text x="375px" y="385px"><tspan x="375" dy="34.66666666666667">Child</tspan></text><line x1="375px" y1="315px" x2="375px" y2="385px" marker-end="url(#arrowHead)"></line><rect x="490px" y="385px" width="68px" height="58px"></rect><text x="525px" y="385px"><tspan x="525" dy="34.66666666666667">Child</tspan></text><line x1="525px" y1="315px" x2="525px" y2="385px" marker-end="url(#arrowHead)"></line><rect x="640px" y="385px" width="68px" height="58px"></rect><text x="674px" y="385px"><tspan x="674" dy="34.66666666666667">Child</tspan></text><line x1="674px" y1="315px" x2="674px" y2="385px" marker-end="url(#arrowHead)"></line><rect x="790px" y="385px" width="68px" height="58px"></rect><text x="824px" y="385px"><tspan x="824" dy="34.66666666666667">Child</tspan></text><line x1="824px" y1="315px" x2="824px" y2="385px" marker-end="url(#arrowHead)"></line></g>
    </svg>
  